<?xml version="1.0" encoding="iso-8859-1"?>
<!-- Generator: Adobe Illustrator 24.1.2, SVG Export Plug-In . SVG Version: 6.00 Build 0)  -->
<svg version="1.1" id="Layer_1" xmlns="http://www.w3.org/2000/svg" xmlns:xlink="http://www.w3.org/1999/xlink" x="0px" y="0px"
	 viewBox="0 0 43.435 37.997" style="enable-background:new 0 0 43.435 37.997;" xml:space="preserve">
<path id="Icon_awesome-connectdevelop" style="fill:#020203;" d="M42.503,17.813l-3.965-6.871c0.094-0.177,0.144-0.373,0.148-0.573
	c-0.011-0.643-0.523-1.165-1.166-1.188l-4.39-7.592c0.048-0.122,0.077-0.251,0.085-0.382C33.215,0.541,32.676,0,32.01,0
	c-0.363,0-0.707,0.164-0.937,0.446h-8.44c-0.392-0.504-1.119-0.594-1.622-0.202c-0.075,0.059-0.143,0.126-0.202,0.202h-8.4
	c-0.42-0.517-1.18-0.596-1.696-0.176c-0.283,0.23-0.446,0.574-0.446,0.939c0.006,0.131,0.034,0.261,0.085,0.382l-4.432,7.7
	C5.486,9.475,5.203,9.9,5.199,10.372c0,0.042,0.021,0.085,0.021,0.127L1,17.794c-0.577,0.1-0.999,0.601-1,1.187
	c0.003,0.569,0.399,1.061,0.954,1.187l4.376,7.548c-0.044,0.123-0.065,0.252-0.064,0.382c-0.002,0.567,0.398,1.056,0.954,1.166
	l4.093,7.1c-0.051,0.136-0.079,0.279-0.085,0.424c-0.001,0.667,0.54,1.208,1.207,1.209c0.001,0,0.001,0,0.002,0
	c0.352,0.003,0.687-0.153,0.912-0.424h8.461c0.424,0.504,1.176,0.568,1.68,0.144c0.052-0.044,0.101-0.092,0.144-0.144h8.482
	c0.224,0.243,0.539,0.381,0.869,0.382c0.667,0.001,1.208-0.54,1.209-1.207c0-0.001,0-0.001,0-0.002
	c0.001-0.116-0.02-0.231-0.064-0.339l4.093-7.146c0.556-0.11,0.956-0.599,0.954-1.166c-0.001-0.13-0.022-0.259-0.064-0.382
	l4.347-7.549c0.567-0.111,0.976-0.609,0.975-1.187c0.003-0.56-0.386-1.046-0.933-1.166L42.503,17.813z M11.077,34.413l-3.456-6
	h3.456V34.413z M11.077,27.776H7.62c-0.026-0.088-0.062-0.173-0.106-0.254l3.562-3.746L11.077,27.776z M11.077,22.835l-3.987,4.22
	c-0.102-0.051-0.209-0.094-0.318-0.127l-4.411-7.63c0.035-0.103,0.049-0.213,0.042-0.322C2.407,18.883,2.4,18.79,2.382,18.7
	l4.114-7.124c0.219-0.019,0.431-0.092,0.615-0.212l3.965,4.112v7.358L11.077,22.835z M11.077,14.735l-3.627-3.75
	c0.113-0.185,0.172-0.398,0.17-0.615c0-0.021-0.021-0.064-0.021-0.085l3.478-1.251v5.7L11.077,14.735z M11.077,8.352L7.62,9.607
	l3.456-5.98L11.077,8.352z M36.926,11.452l0.064,0.106l-2.8,13.232l-5.047-5.323l7.761-8.037l0.021,0.021L36.926,11.452z
	 M22.019,26.852l0.912,0.933h-1.8L22.019,26.852z M21.998,25.961l-6.595-6.764l6.3-6.68l6.574,6.934L21.998,25.961z M22.422,26.428
	l6.277-6.51l5.344,5.635l-0.468,2.223h-9.818l-1.336-1.357L22.422,26.428z M31.412,2.249c0.087,0.048,0.18,0.084,0.276,0.106
	l4.58,7.973v0.042c-0.002,0.217,0.057,0.43,0.17,0.615l-7.719,8.016l-6.576-6.934L31.412,2.249z M30.691,2.079L21.7,11.6
	l-4.516-4.771l13.168-4.753h0.339L30.691,2.079z M20.915,2.079c0.435,0.445,1.149,0.453,1.594,0.018
	c0.006-0.006,0.012-0.012,0.018-0.018h5.937L16.717,6.32l-4.029-4.244h8.228L20.915,2.079z M11.715,2.524l0.085-0.17
	c0.071-0.018,0.142-0.039,0.212-0.064l4.05,4.262l-4.349,1.571L11.715,2.524z M11.715,8.801l4.814-1.739l4.729,5l-6.3,6.658
	l-3.245-3.324V8.801L11.715,8.801z M11.715,16.138l2.884,2.99l-2.886,3.033v-6.023H11.715z M11.715,23.093l3.328-3.517l6.551,6.8
	l-1.357,1.4h-8.524v-4.682L11.715,23.093z M12.266,35.922c-0.131-0.128-0.291-0.223-0.467-0.276l-0.085-0.127v-7.1h7.91
	l-7.252,7.507h-0.106V35.922z M22.551,35.922c-0.459-0.452-1.195-0.452-1.654,0h-7.636l7.252-7.506h3.03l7.252,7.507h-8.246
	L22.551,35.922z M32.051,34.989l-0.339,0.594c-0.096,0.022-0.189,0.058-0.276,0.106l-7.064-7.273h9.055l-1.378,6.574L32.051,34.989z
	 M33.069,33.229l1.018-4.814h1.736L33.069,33.229z M35.823,27.776h-1.612l0.36-1.675l1.357,1.442
	C35.88,27.614,35.844,27.693,35.823,27.776L35.823,27.776z M41.061,19.276l-4.39,7.655c-0.11,0.041-0.216,0.09-0.318,0.148
	L34.72,25.34l2.736-12.978l3.626,6.277c-0.033,0.11-0.055,0.224-0.064,0.339C41.022,19.078,41.036,19.178,41.061,19.276z"/>
</svg>
