<?xml version="1.0" encoding="iso-8859-1"?>
<!-- Generator: Adobe Illustrator 24.1.2, SVG Export Plug-In . SVG Version: 6.00 Build 0)  -->
<svg version="1.1" id="Layer_1" xmlns="http://www.w3.org/2000/svg" xmlns:xlink="http://www.w3.org/1999/xlink" x="0px" y="0px"
	 viewBox="0 0 32.959 38" style="enable-background:new 0 0 32.959 38;" xml:space="preserve">
<g id="Group_10" transform="translate(1130 169.003)">
	<g>
		<defs>
			<rect id="SVGID_3_" x="-1130" y="-169.003" width="32.959" height="38"/>
		</defs>
		<clipPath id="SVGID_1_">
			<use xlink:href="#SVGID_3_"  style="overflow:visible;"/>
		</clipPath>
		<g id="Group_9" transform="translate(0 -0.003)" style="clip-path:url(#SVGID_1_);">
			<path id="Path_16" style="fill:#020203;" d="M-1120.081-139.012l-1.478-0.85l-3.048-11.426v9.671l-1.737-1v-13.927l1.737-0.979
				c0,0.13,1.688,5.584,2.42,7.944l0.018-9.792l2.088-1.145V-139.012z M-1109.052-151.223v2.42h-7.3v12.008l-1.958-1.293v-23.795
				l4.79-2.863l6.054,3.547l-1.127,1.755l-4.928-2.864l-2.832,1.607v9.477L-1109.052-151.223z M-1100.129-154.179l-2.679-1.829
				v15.04l-2.161,1.2v-17.422l-2.6-1.7l1.071-1.607l6.373,4.027L-1100.129-154.179z"/>
			<path id="Path_17" style="fill:#020203;" d="M-1122.187-149.579c-0.732-2.36-2.42-7.814-2.42-7.944l-1.736,0.979v13.929l1.736,1
				v-9.671l3.048,11.426l1.478,0.85v-21.5l-2.088,1.145L-1122.187-149.579z"/>
			<path id="Path_18" style="fill:#020203;" d="M-1113.519-162.308l4.927,2.863l1.127-1.755l-6.054-3.547l-4.79,2.863v23.794
				l1.958,1.293v-12.007h7.3v-2.42h-7.3v-9.477L-1113.519-162.308z"/>
			<path id="Path_19" style="fill:#020203;" d="M-1107.575-158.892l2.6,1.7v17.42l2.161-1.2v-15.036l2.679,1.829v-2.291
				l-6.373-4.027L-1107.575-158.892z"/>
			<path id="Path_20" style="fill:#020203;" d="M-1113.523-168.998l-16.477,9.553v18.936l16.505,9.511l16.454-9.514v-18.937
				L-1113.523-168.998z M-1128.043-141.618v-16.792l14.521-8.41l14.522,8.405v16.793l-14.5,8.405L-1128.043-141.618z"/>
		</g>
	</g>
</g>
</svg>
