<?xml version="1.0" encoding="iso-8859-1"?>
<!-- Generator: Adobe Illustrator 24.1.2, SVG Export Plug-In . SVG Version: 6.00 Build 0)  -->
<svg version="1.1" id="Layer_1" xmlns="http://www.w3.org/2000/svg" xmlns:xlink="http://www.w3.org/1999/xlink" x="0px" y="0px"
	 viewBox="0 0 48 48" style="enable-background:new 0 0 48 48;" xml:space="preserve">
<g id="Group_26" transform="translate(836 461)">
	<path id="Path_34" style="fill:none;stroke:#020203;stroke-width:4;stroke-linecap:round;stroke-linejoin:round;" d="M-824-425.8
		l-4-2.2v-5"/>
	<path id="Path_35" style="fill:none;stroke:#020203;stroke-width:4;stroke-linecap:round;stroke-linejoin:round;" d="M-828-441v-5
		l4-2.2"/>
	<path id="Path_36" style="fill:none;stroke:#020203;stroke-width:4;stroke-linecap:round;stroke-linejoin:round;" d="M-816-452.8
		l4-2.2l4,2.2"/>
	<path id="Path_37" style="fill:none;stroke:#020203;stroke-width:4;stroke-linecap:round;stroke-linejoin:round;" d="M-800-448.2
		l4,2.2v5"/>
	<path id="Path_38" style="fill:none;stroke:#020203;stroke-width:4;stroke-linecap:round;stroke-linejoin:round;" d="M-796-433v5
		l-4,2.24"/>
	<path id="Path_39" style="fill:none;stroke:#020203;stroke-width:4;stroke-linecap:round;stroke-linejoin:round;" d="M-808-421.2
		l-4,2.2l-4-2.2"/>
	<path id="Path_40" style="fill:none;stroke:#020203;stroke-width:4;stroke-linecap:round;stroke-linejoin:round;" d="M-812-437
		l4-2.2"/>
	<path id="Path_41" style="fill:none;stroke:#020203;stroke-width:4;stroke-linecap:round;stroke-linejoin:round;" d="M-800-443.8
		l4-2.2"/>
	<path id="Path_42" style="fill:none;stroke:#020203;stroke-width:4;stroke-linecap:round;stroke-linejoin:round;" d="M-812-437v5"
		/>
	<path id="Path_43" style="fill:none;stroke:#020203;stroke-width:4;stroke-linecap:round;stroke-linejoin:round;" d="M-812-424v5"
		/>
	<path id="Path_44" style="fill:none;stroke:#020203;stroke-width:4;stroke-linecap:round;stroke-linejoin:round;" d="M-812-437
		l-4-2.24"/>
	<path id="Path_45" style="fill:none;stroke:#020203;stroke-width:4;stroke-linecap:round;stroke-linejoin:round;" d="M-824-443.8
		l-4-2.2"/>
	<path id="Path_46" style="fill:none;" d="M-836-461h48v48h-48V-461z"/>
</g>
</svg>
