<?xml version="1.0" encoding="iso-8859-1"?>
<!-- Generator: Adobe Illustrator 24.1.2, SVG Export Plug-In . SVG Version: 6.00 Build 0)  -->
<svg version="1.1" id="Layer_1" xmlns="http://www.w3.org/2000/svg" xmlns:xlink="http://www.w3.org/1999/xlink" x="0px" y="0px"
	 viewBox="0 0 38 38" style="enable-background:new 0 0 38 38;" xml:space="preserve">
<g id="Group_27" transform="translate(616 161.716)">
	<path id="Path_47" style="fill:#020203;" d="M-581.943-153.216c-0.987-1.309-2.066-2.546-3.23-3.7
		c-1.154-1.164-2.391-2.243-3.7-3.23c-1.92-1.412-2.847-1.57-3.377-1.57h-18.406c-1.64,0.001-2.968,1.329-2.969,2.969v32.062
		c0.001,1.64,1.329,2.968,2.969,2.969h27.312c1.64-0.001,2.968-1.329,2.969-2.969v-23.156
		C-580.375-150.371-580.533-151.306-581.943-153.216z M-586.859-155.232c0.961,0.947,1.86,1.954,2.692,3.016h-5.708v-5.708
		C-588.815-157.09-587.808-156.191-586.859-155.232z M-582.75-126.684c-0.003,0.327-0.267,0.591-0.594,0.594h-27.312
		c-0.327-0.003-0.591-0.267-0.594-0.594v-32.063c0.003-0.327,0.267-0.591,0.594-0.594h18.406v8.312
		c-0.001,0.655,0.529,1.187,1.184,1.188c0.001,0,0.003,0,0.004,0h8.313L-582.75-126.684z"/>
	<path id="Path_48" style="fill:#020203;" d="M-588.688-130.841h-16.624c-0.656-0.019-1.172-0.566-1.153-1.222
		c0.018-0.629,0.524-1.135,1.153-1.153h16.624c0.656,0.019,1.172,0.566,1.153,1.222
		C-587.553-131.365-588.059-130.859-588.688-130.841z"/>
	<path id="Path_49" style="fill:#020203;" d="M-588.688-135.591h-16.624c-0.656-0.019-1.172-0.566-1.153-1.222
		c0.018-0.629,0.524-1.135,1.153-1.153h16.624c0.656,0.019,1.172,0.566,1.153,1.222
		C-587.553-136.115-588.059-135.609-588.688-135.591z"/>
	<path id="Path_50" style="fill:#020203;" d="M-588.688-140.341h-16.624c-0.656-0.019-1.172-0.566-1.153-1.222
		c0.018-0.629,0.524-1.135,1.153-1.153h16.624c0.656,0.019,1.172,0.566,1.153,1.222
		C-587.553-140.865-588.059-140.359-588.688-140.341z"/>
	<path id="Path_51" style="fill:none;" d="M-616-161.716h38v38h-38V-161.716z"/>
</g>
</svg>
