<?xml version="1.0" encoding="iso-8859-1"?>
<!-- Generator: Adobe Illustrator 24.1.2, SVG Export Plug-In . SVG Version: 6.00 Build 0)  -->
<svg version="1.1" id="Layer_1" xmlns="http://www.w3.org/2000/svg" xmlns:xlink="http://www.w3.org/1999/xlink" x="0px" y="0px"
	 viewBox="0 0 41.689 38.001" style="enable-background:new 0 0 41.689 38.001;" xml:space="preserve">
<path id="Icon_simple-atom" style="fill:#020203;" d="M35.588,13.833c-4.578-1.779-9.423-2.775-14.332-2.945
	c-0.869-0.052-1.715-0.069-2.519-0.069c4.031-4.914,8.351-8.214,11.186-8.322c0.495-0.037,0.988,0.082,1.412,0.34
	c1.226,0.8,1.572,3.071,0.947,6.237c-0.075,0.429,0.2,0.842,0.625,0.938c0.43,0.088,0.849-0.189,0.937-0.619
	c0-0.002,0.001-0.004,0.001-0.006c0.782-3.961,0.208-6.681-1.633-7.883c-0.7-0.44-1.52-0.65-2.345-0.6
	c-3.561,0.134-8.582,4-13.185,9.937c-1.88,0.049-3.756,0.216-5.615,0.5C9.946,6.305,10.388,2.692,12.1,1.823
	c0.247-0.126,0.517-0.199,0.794-0.215c1.211-0.094,2.884,0.686,4.708,2.206c0.311,0.313,0.818,0.315,1.131,0.003
	s0.315-0.818,0.003-1.131c-0.036-0.036-0.075-0.068-0.117-0.097c-2.189-1.814-4.207-2.7-5.858-2.578
	c-0.485,0.039-0.958,0.169-1.395,0.382c-2.067,1.054-2.9,4.042-2.38,8.4c0.122,0.9,0.278,1.845,0.5,2.814
	c-5.699,1.145-9.327,3.428-9.483,6.298c-0.1,2.033,1.5,3.968,4.656,5.6c0.375,0.233,0.869,0.118,1.102-0.258
	c0.233-0.375,0.118-0.869-0.258-1.102c-0.036-0.023-0.074-0.042-0.114-0.059c-2.519-1.3-3.874-2.759-3.792-4.1
	c0.087-1.876,3.078-3.8,8.269-4.829c0.499,1.826,1.107,3.62,1.821,5.372c-1.642,2.951-2.89,6.105-3.712,9.381
	c-0.973,4.282-0.452,7.331,1.494,8.6c0.647,0.411,1.4,0.622,2.166,0.608c1.624,0,3.591-0.8,5.814-2.383
	c0.359-0.254,0.444-0.752,0.19-1.111c-0.254-0.359-0.752-0.444-1.111-0.189c-2.682,1.916-4.941,2.557-6.188,1.742
	c-1.32-0.86-1.609-3.375-0.8-6.907c0.678-2.725,1.673-5.36,2.967-7.852c0.347,0.761,0.712,1.521,1.094,2.281
	c2.155,4.415,5.038,8.435,8.53,11.891c2.408,2.241,4.645,3.41,6.488,3.41c0.589,0.006,1.171-0.127,1.7-0.387
	c1.989-1.016,2.849-3.839,2.429-7.948c-0.619-4.597-2.001-9.058-4.089-13.2c-0.211-0.388-0.697-0.531-1.085-0.32
	c-0.359,0.195-0.513,0.63-0.357,1.008c4.673,9.732,5,17.7,2.38,19.04c-2.762,1.412-9.423-4.091-14.575-14.21
	c-0.591-1.138-1.107-2.258-1.563-3.353c0.591-1.056,1.216-2.119,1.9-3.179c0.684-1.06,1.4-2.064,2.126-3.031h0.684
	c0.938,0,1.956,0.017,3.012,0.083c11.344,0.6,19.066,4.447,18.908,7.529c-0.069,1.329-1.605,2.672-4.213,3.683
	c-0.408,0.164-0.609,0.624-0.452,1.035c0.118,0.306,0.412,0.508,0.74,0.507c0.099,0,0.197-0.017,0.29-0.052
	c3.309-1.286,5.125-3.051,5.229-5.09c0.122-2.31-2.033-4.534-6.08-6.254v-0.017L35.588,13.833z M14.019,14.57
	c-0.469,0.721-0.9,1.437-1.327,2.161c-0.507-1.334-0.924-2.623-1.256-3.848c1.239-0.191,2.58-0.33,4.013-0.417
	c-0.487,0.677-0.961,1.377-1.424,2.1v-0.017L14.019,14.57z M20.837,16.611c-1.319,0-2.389,1.07-2.389,2.389s1.07,2.389,2.389,2.389
	s2.389-1.07,2.389-2.389c0.001-1.318-1.067-2.388-2.385-2.39L20.837,16.611z"/>
</svg>
