<?xml version="1.0" encoding="iso-8859-1"?>
<!-- Generator: Adobe Illustrator 24.1.2, SVG Export Plug-In . SVG Version: 6.00 Build 0)  -->
<svg version="1.1" id="Layer_1" xmlns="http://www.w3.org/2000/svg" xmlns:xlink="http://www.w3.org/1999/xlink" x="0px" y="0px"
	 viewBox="0 0 39.723 40" style="enable-background:new 0 0 39.723 40;" xml:space="preserve">
<path id="Icon_awesome-exchange-alt-2" style="fill:#020203;" d="M0,14.173v-1.241c0-1.028,0.834-1.862,1.862-1.862h27.93V7.346
	c0.001-1.029,0.836-1.862,1.865-1.861c0.493,0,0.965,0.196,1.314,0.544l6.207,6.207c0.727,0.727,0.727,1.906,0,2.633l-6.207,6.207
	c-0.728,0.727-1.908,0.726-2.635-0.003c-0.348-0.349-0.544-0.821-0.544-1.314v-3.724H1.862C0.834,16.035,0,15.201,0,14.173
	C0,14.173,0,14.173,0,14.173z M37.861,25.966H9.931v-3.72c-0.001-1.029-0.836-1.862-1.865-1.861c-0.493,0-0.965,0.196-1.314,0.544
	l-6.207,6.203c-0.727,0.727-0.727,1.906,0,2.633l6.207,6.207c0.728,0.727,1.908,0.726,2.635-0.003
	c0.348-0.349,0.544-0.821,0.544-1.314v-3.724h27.93c1.028,0,1.862-0.834,1.862-1.862v-1.241C39.723,26.8,38.89,25.966,37.861,25.966
	z"/>
<g id="Icon_awesome-dollar-sign" transform="translate(1425.736 367.5)">
	<path style="fill:#020203;" d="M-1404.75-328.5h-2.25c-1.172,0-2.125-0.953-2.125-2.125v-2.424
		c-2.067-0.198-4.059-0.988-5.698-2.272c-0.5-0.388-0.807-0.969-0.843-1.595c-0.035-0.611,0.197-1.206,0.635-1.633l2.445-2.389
		c0.391-0.383,0.931-0.604,1.479-0.604c0.412,0,0.809,0.121,1.149,0.349l0.002,0.001l0.002,0.002
		c0.536,0.364,1.19,0.565,1.842,0.565h4.662c0.592,0,1.074-0.482,1.074-1.074c0-0.472-0.318-0.896-0.774-1.031l-7.204-2.108
		c-1.742-0.51-3.289-1.485-4.473-2.819c-1.234-1.391-1.972-3.065-2.134-4.842c-0.114-1.249,0.034-2.476,0.439-3.645
		c0.388-1.121,0.993-2.136,1.798-3.017c1.46-1.599,3.465-2.593,5.598-2.798v-2.415c0-1.172,0.953-2.125,2.125-2.125h2.25
		c1.172,0,2.125,0.953,2.125,2.125v2.424c2.066,0.198,4.058,0.988,5.696,2.271c0.501,0.388,0.809,0.97,0.844,1.596
		c0.035,0.611-0.197,1.206-0.635,1.633l-2.445,2.389c-0.391,0.383-0.931,0.604-1.479,0.604c-0.412,0-0.809-0.121-1.149-0.349
		l-0.002-0.001l-0.002-0.002c-0.536-0.364-1.19-0.565-1.842-0.565h-4.662c-0.592,0-1.074,0.482-1.074,1.074
		c0,0.468,0.323,0.901,0.767,1.029l7.598,2.223c2.269,0.662,4.199,2.261,5.293,4.387c1.101,2.138,1.267,4.576,0.468,6.866
		c-1.08,3.091-3.975,5.298-7.376,5.713v2.458C-1402.625-329.453-1403.578-328.5-1404.75-328.5z"/>
	<path style="fill:#FFFFFF;" d="M-1407-365.5c-0.619,0-1.125,0.506-1.125,1.125V-361h-0.176c-4.479,0-8.079,3.846-7.664,8.409
		c0.295,3.241,2.77,5.878,5.892,6.792l7.207,2.109c0.879,0.26,1.491,1.076,1.491,1.99c0,1.146-0.928,2.074-2.074,2.074h-4.662
		c-0.858,0-1.702-0.26-2.405-0.738c-0.429-0.288-1.005-0.218-1.371,0.141l-2.447,2.391c-0.499,0.485-0.429,1.294,0.127,1.723
		c1.723,1.35,3.874,2.102,6.082,2.109v3.375c0,0.619,0.506,1.125,1.125,1.125h2.25c0.619,0,1.125-0.506,1.125-1.125v-3.389
		c3.277-0.063,6.349-2.011,7.432-5.112c1.512-4.331-1.026-8.775-5.098-9.963l-7.594-2.222c-0.879-0.253-1.491-1.076-1.491-1.99
		c0-1.146,0.928-2.074,2.074-2.074h4.662c0.858,0,1.702,0.26,2.405,0.738c0.429,0.288,1.005,0.218,1.371-0.141l2.447-2.391
		c0.499-0.485,0.429-1.294-0.127-1.723c-1.723-1.35-3.874-2.102-6.082-2.109v-3.375c0-0.619-0.506-1.125-1.125-1.125H-1407
		 M-1407-367.5h2.25c1.723,0,3.125,1.402,3.125,3.125v1.551c1.927,0.336,3.763,1.144,5.311,2.355
		c0.729,0.566,1.177,1.414,1.229,2.329c0.051,0.899-0.289,1.775-0.933,2.403l-2.447,2.39c-0.583,0.572-1.358,0.889-2.178,0.889
		c-0.611,0-1.202-0.179-1.707-0.519l-0.009-0.006c-0.372-0.253-0.826-0.392-1.28-0.392h-4.662c-0.042,0-0.074,0.033-0.074,0.074
		c0,0.03,0.029,0.064,0.044,0.068l0.008,0.002l7.594,2.222c2.531,0.739,4.682,2.521,5.902,4.889
		c1.228,2.384,1.413,5.102,0.523,7.653c-1.111,3.181-3.93,5.521-7.32,6.231v1.611c0,1.723-1.402,3.125-3.125,3.125h-2.25
		c-1.723,0-3.125-1.402-3.125-3.125v-1.551c-1.927-0.336-3.764-1.144-5.311-2.355c-0.729-0.566-1.176-1.414-1.228-2.328
		c-0.051-0.899,0.289-1.775,0.933-2.403l2.447-2.39c0.583-0.572,1.358-0.889,2.178-0.889c0.611,0,1.202,0.179,1.706,0.519
		l0.009,0.006c0.372,0.253,0.826,0.392,1.28,0.392h4.662c0.042,0,0.074-0.033,0.074-0.074c0-0.025-0.026-0.062-0.058-0.072
		l-7.201-2.108c-1.923-0.563-3.631-1.64-4.94-3.115c-1.377-1.552-2.201-3.424-2.382-5.415c-0.126-1.392,0.039-2.759,0.49-4.063
		c0.433-1.25,1.108-2.382,2.005-3.364c1.419-1.554,3.301-2.596,5.337-2.988v-1.55C-1410.125-366.098-1408.723-367.5-1407-367.5z"/>
</g>
</svg>
