<?xml version="1.0" encoding="iso-8859-1"?>
<!-- Generator: Adobe Illustrator 24.1.2, SVG Export Plug-In . SVG Version: 6.00 Build 0)  -->
<svg version="1.1" id="Layer_1" xmlns="http://www.w3.org/2000/svg" xmlns:xlink="http://www.w3.org/1999/xlink" x="0px" y="0px"
	 viewBox="0 0 47.945 47.945" style="enable-background:new 0 0 47.945 47.945;" xml:space="preserve">
<g id="Group_29" transform="translate(608.028 156.243)">
	<g id="Group_28" transform="translate(47.945 47.945) rotate(180)" style="opacity:0;">
		<path id="Path_52" style="fill:#FFFFFF;" d="M608.028,156.243h47.945v47.945h-47.945V156.243z"/>
	</g>
	<path id="Path_53" style="fill:#231F20;" d="M-572.069-150.25h-23.973c-3.308,0.004-5.989,2.685-5.993,5.993v23.973
		c0.004,3.308,2.685,5.989,5.993,5.993h23.973c3.308-0.004,5.989-2.685,5.993-5.993v-23.973
		C-566.08-147.565-568.761-150.246-572.069-150.25z M-575.469-137.05l-9.126,11.991c-0.377,0.49-0.96,0.777-1.578,0.779l0,0
		c-0.614,0.002-1.196-0.278-1.578-0.759l-4.875-6.211c-0.667-0.88-0.494-2.135,0.387-2.802c0.864-0.654,2.092-0.502,2.769,0.345
		l3.257,4.157l7.551-9.989c0.673-0.884,1.935-1.054,2.818-0.382s1.054,1.935,0.381,2.819l0,0L-575.469-137.05z"/>
	<path id="Path_54" style="fill:none;" d="M-608.028-156.243h47.945v47.945h-47.945V-156.243z"/>
</g>
</svg>
