<?xml version="1.0" encoding="iso-8859-1"?>
<!-- Generator: Adobe Illustrator 24.1.2, SVG Export Plug-In . SVG Version: 6.00 Build 0)  -->
<svg version="1.1" id="Layer_1" xmlns="http://www.w3.org/2000/svg" xmlns:xlink="http://www.w3.org/1999/xlink" x="0px" y="0px"
	 viewBox="0 0 39.723 31.032" style="enable-background:new 0 0 39.723 31.032;" xml:space="preserve">
<path id="Icon_awesome-exchange-alt" style="fill:#020203;" d="M0,8.688V7.447c0-1.028,0.834-1.862,1.862-1.862h27.93V1.861
	C29.793,0.832,30.628-0.001,31.657,0c0.493,0,0.965,0.196,1.314,0.544l6.207,6.207c0.727,0.727,0.727,1.906,0,2.633l-6.207,6.207
	c-0.728,0.727-1.908,0.726-2.635-0.003c-0.348-0.349-0.544-0.821-0.544-1.314V10.55H1.862C0.834,10.55,0,9.717,0,8.688
	C0,8.688,0,8.688,0,8.688z M37.861,20.481H9.931v-3.72C9.93,15.732,9.095,14.899,8.067,14.9c-0.493,0-0.965,0.196-1.314,0.544
	l-6.207,6.203c-0.727,0.727-0.727,1.906,0,2.633l6.207,6.207c0.728,0.727,1.908,0.726,2.635-0.003
	c0.348-0.349,0.544-0.821,0.544-1.314v-3.724h27.93c1.028,0,1.862-0.834,1.862-1.862v-1.241
	C39.723,21.315,38.89,20.481,37.861,20.481z"/>
</svg>
