<?xml version="1.0" encoding="iso-8859-1"?>
<!-- Generator: Adobe Illustrator 24.1.2, SVG Export Plug-In . SVG Version: 6.00 Build 0)  -->
<svg version="1.1" id="Layer_1" xmlns="http://www.w3.org/2000/svg" xmlns:xlink="http://www.w3.org/1999/xlink" x="0px" y="0px"
	 viewBox="0 0 32.138 28.964" style="enable-background:new 0 0 32.138 28.964;" xml:space="preserve">
<path id="Path_21" style="fill:#020203;" d="M30.062,21.203c-1.536-0.888-3.468-0.697-4.8,0.475l-1.963-1.14v-5.629
	c-0.002-0.581-0.312-1.117-0.815-1.409l-5.049-2.91V8.101c2.176-0.737,3.343-3.098,2.606-5.274s-3.098-3.343-5.274-2.606
	s-3.343,3.098-2.606,5.274c0.415,1.227,1.379,2.191,2.606,2.606v2.489L9.716,13.5c-0.505,0.289-0.816,0.827-0.815,1.409v5.629
	l-1.963,1.14c-1.721-1.529-4.357-1.373-5.886,0.348c-1.529,1.721-1.373,4.357,0.348,5.886s4.357,1.373,5.886-0.348
	c0.865-0.974,1.225-2.296,0.974-3.574l1.8-1.053l5.217,3.008c0.504,0.296,1.127,0.296,1.631,0l5.217-3l1.81,1.045
	c-0.443,2.244,1.016,4.422,3.26,4.865s4.422-1.016,4.865-3.26C32.403,23.855,31.6,22.088,30.062,21.203z M5.085,26.341
	c-0.846,0.486-1.927,0.195-2.414-0.651c-0.49-0.847-0.202-1.931,0.645-2.421s1.931-0.202,2.421,0.645s0.202,1.931-0.645,2.421
	c-0.002,0.001-0.004,0.002-0.006,0.004L5.085,26.341z M14.316,4.166c-0.022-0.984,0.758-1.799,1.742-1.822
	c0.984-0.022,1.799,0.758,1.822,1.742c0.022,0.984-0.758,1.799-1.742,1.822c-0.014,0-0.027,0-0.041,0
	C15.13,5.905,14.34,5.133,14.316,4.166z M20.626,20.72l-4.528,2.613l-4.529-2.613v-5.209l4.528-2.6l4.528,2.6L20.626,20.72z
	 M29.526,25.692c-0.494,0.844-1.578,1.128-2.421,0.634c-0.844-0.494-1.128-1.578-0.634-2.421c0.49-0.838,1.564-1.125,2.407-0.643
	c0.848,0.488,1.14,1.572,0.652,2.42c-0.002,0.003-0.003,0.006-0.005,0.008L29.526,25.692z"/>
<path id="Path_22" style="fill:none;" d="M-2.903-4.518h38v38h-38V-4.518z"/>
</svg>
