<?xml version="1.0" encoding="iso-8859-1"?>
<!-- Generator: Adobe Illustrator 24.1.2, SVG Export Plug-In . SVG Version: 6.00 Build 0)  -->
<svg version="1.1" id="Layer_1" xmlns="http://www.w3.org/2000/svg" xmlns:xlink="http://www.w3.org/1999/xlink" x="0px" y="0px"
	 viewBox="0 0 38 38" style="enable-background:new 0 0 38 38;" xml:space="preserve">
<g id="Group_12" transform="translate(1416 169)">
	<path id="Path_23" style="fill:none;stroke:#020203;stroke-width:4;stroke-linecap:round;stroke-linejoin:round;" d="
		M-1403.333-140.5l3.167-3.167h3.167l2.153-2.153c5.373,1.879,11.251-0.952,13.131-6.325c1.879-5.373-0.952-11.252-6.325-13.131
		c-5.373-1.879-11.252,0.952-13.131,6.325c-0.771,2.203-0.771,4.603,0,6.806l-11.662,11.645v6.333h6.333l3.167-3.166V-140.5z"/>
	<path id="Path_24" style="fill:none;stroke:#020203;stroke-width:4;stroke-linecap:round;stroke-linejoin:round;" d="
		M-1387.5-157.917c0,0.874-0.709,1.583-1.583,1.583s-1.583-0.709-1.583-1.583c0-0.874,0.708-1.582,1.582-1.583
		C-1388.21-159.498-1387.503-158.791-1387.5-157.917z"/>
	<path id="Path_25" style="fill:none;" d="M-1416-169h38v38h-38V-169z"/>
</g>
</svg>
