
<svg xmlns="http://www.w3.org/2000/svg" xmlns:xlink="http://www.w3.org/1999/xlink" width="261" height="56.084" viewBox="0 0 261 56.084">
  <defs>
    <clipPath id="clip-path">
      <rect id="Rectangle_2" data-name="Rectangle 2" width="261" height="56.084" fill="none"/>
    </clipPath>
  </defs>
  <g id="header" transform="translate(-78 -44.187)">
    <g id="en">
      <g id="on_off" data-name="on off">
        <g id="bg" transform="translate(1739 66)" fill="none" stroke="#000" stroke-width="2">
          
        </g>
        
      </g>
      
    </g>
    
    <g id="Group_2" data-name="Group 2" transform="translate(78 44.187)">
      <g id="Group_1" data-name="Group 1" transform="translate(0 0)" clip-path="url(#clip-path)">
        <path id="Path_1" data-name="Path 1" d="M.468,29.171l4.918,4.918a1.6,1.6,0,0,0,2.258,0L34.089,7.644a1.6,1.6,0,0,0,0-2.261L29.171.468a1.6,1.6,0,0,0-2.258,0L.468,26.913a1.6,1.6,0,0,0,0,2.258" transform="translate(0 -0.001)" fill="#191717"/>
        <path id="Path_2" data-name="Path 2" d="M30.32,14.45l-3.59-3.588L20.683,4.815a1.593,1.593,0,0,0-2.256,0L13.51,9.733a1.6,1.6,0,0,0,0,2.258l6.047,6.047L22.015,20.5a1.6,1.6,0,0,1,0,2.258L13.51,31.26a1.6,1.6,0,0,0,0,2.258l4.918,4.918a1.593,1.593,0,0,0,2.256,0L30.32,28.8l6.047-6.047a1.6,1.6,0,0,0,0-2.258Z" transform="translate(19.252 6.415)" fill="#ce8f18"/>
        <path id="Path_3" data-name="Path 3" d="M9.162,25.033,14.08,29.95a1.6,1.6,0,0,0,2.258,0l4.918-4.918a1.6,1.6,0,0,0,0-2.258l-4.918-4.918a1.6,1.6,0,0,0-2.258,0L9.162,22.775a1.6,1.6,0,0,0,0,2.258" transform="translate(12.833 25.667)" fill="#191717"/>
        <path id="Path_4" data-name="Path 4" d="M4.815,27.1l4.918,4.918a1.6,1.6,0,0,0,2.258,0L27.672,16.338a1.6,1.6,0,0,0,0-2.258L22.754,9.162a1.6,1.6,0,0,0-2.258,0L4.815,24.843a1.6,1.6,0,0,0,0,2.258" transform="translate(6.417 12.832)" fill="#191717"/>
        <rect id="Rectangle_1" data-name="Rectangle 1" width="3.09" height="15.107" transform="translate(73.098 20.487)" fill="#191717"/>
        <path id="Path_5" data-name="Path 5" d="M43.787,8.275h3.09V23.382h-1.03L37.1,14.371v9.011h-3.09V8.275h1.008l8.765,8.946Z" transform="translate(50.209 12.213)" fill="#191717"/>
        <path id="Path_6" data-name="Path 6" d="M52.9,8.275h3.479l-6.73,15.107h-1.03L41.871,8.275h3.5l3.776,8.993Z" transform="translate(61.807 12.213)" fill="#191717"/>
        <path id="Path_7" data-name="Path 7" d="M60.575,8.275v2.793H53.5v3.068H58.7v2.632H53.5v3.821H60.85v2.793H50.414V8.275Z" transform="translate(74.416 12.213)" fill="#191717"/>
        <path id="Path_8" data-name="Path 8" d="M67.915,11.036,65.81,12.6a3.418,3.418,0,0,0-2.885-1.679c-1.077,0-1.877.51-1.877,1.414,0,.773.48,1.127,1.763,1.679l1.716.73c2.54,1.082,3.732,2.3,3.732,4.261a3.9,3.9,0,0,1-1.488,3.182,5.888,5.888,0,0,1-3.8,1.191,6.628,6.628,0,0,1-5.836-3.224l2.129-1.548a4.562,4.562,0,0,0,3.707,2.122c1.352,0,2.152-.619,2.152-1.612a1.2,1.2,0,0,0-.275-.775c-.342-.463-.664-.594-1.647-1.037L61.574,16.6c-2.357-1.037-3.662-2.276-3.662-4.2A3.639,3.639,0,0,1,59.33,9.424a6,6,0,0,1,8.585,1.612" transform="translate(84.337 12.214)" fill="#191717"/>
        <path id="Path_9" data-name="Path 9" d="M76.774,8.275v2.793H71.921V23.382h-3.09V11.068H64V8.275Z" transform="translate(94.475 12.213)" fill="#191717"/>
        <path id="Path_10" data-name="Path 10" d="M81.751,23.383,80.9,21.449h-6.18l-.847,1.934h-3.32L77.308,8.274h1.03l6.73,15.109ZM79.8,18.954l-1.991-4.992-1.991,4.992Z" transform="translate(104.149 12.212)" fill="#191717"/>
        <path id="Path_11" data-name="Path 11" d="M82.188,8.275V20.588H88.8v2.793H79.1V8.275Z" transform="translate(116.758 12.213)" fill="#191717"/>
        <path id="Path_12" data-name="Path 12" d="M96.4,23.383l-.847-1.934h-6.18l-.847,1.934H85.208L91.96,8.274h1.03l6.73,15.109Zm-1.946-4.43-1.991-4.992-1.991,4.992Z" transform="translate(125.777 12.212)" fill="#191717"/>
        <path id="Path_13" data-name="Path 13" d="M105.445,18.941a4.065,4.065,0,0,1-1.394,3.2,5.137,5.137,0,0,1-3.573,1.236H93.75V8.274h5.356a4.928,4.928,0,0,1,3.432,1.191,3.828,3.828,0,0,1,1.352,3.021,3.571,3.571,0,0,1-1.122,2.724,3.759,3.759,0,0,1,2.677,3.732m-8.721-8.013v3.457h2.129c1.26,0,1.969-.664,1.969-1.738s-.708-1.718-1.969-1.718Zm3.526,9.8c1.349,0,2.152-.711,2.152-1.9,0-1.169-.8-1.9-2.152-1.9H96.724v3.8Z" transform="translate(138.386 12.212)" fill="#191717"/>
        <path id="Path_14" data-name="Path 14" d="M111.7,11.036l-2.1,1.567a3.418,3.418,0,0,0-2.885-1.679c-1.077,0-1.877.51-1.877,1.414,0,.773.48,1.127,1.763,1.679l1.716.73c2.541,1.082,3.732,2.3,3.732,4.261a3.9,3.9,0,0,1-1.488,3.182,5.888,5.888,0,0,1-3.8,1.191,6.628,6.628,0,0,1-5.836-3.224l2.129-1.548a4.562,4.562,0,0,0,3.707,2.122c1.352,0,2.152-.619,2.152-1.612a1.2,1.2,0,0,0-.275-.775c-.342-.463-.664-.594-1.647-1.037l-1.627-.706c-2.357-1.037-3.662-2.276-3.662-4.2a3.639,3.639,0,0,1,1.419-2.981,6,6,0,0,1,8.585,1.612" transform="translate(148.961 12.214)" fill="#191717"/>
      </g>
    </g>
  </g>
</svg>
