<?xml version="1.0" encoding="iso-8859-1"?>
<!-- Generator: Adobe Illustrator 24.1.2, SVG Export Plug-In . SVG Version: 6.00 Build 0)  -->
<svg version="1.1" id="Layer_1" xmlns="http://www.w3.org/2000/svg" xmlns:xlink="http://www.w3.org/1999/xlink" x="0px" y="0px"
	 viewBox="0 0 31 15" style="enable-background:new 0 0 31 15;" xml:space="preserve">
<g id="icon_main_menu">
	<path id="Ellipse_1_copy_4" style="fill:#020203;" d="M26,12.5c0-1.381,1.119-2.5,2.5-2.5s2.5,1.119,2.5,2.5S29.881,15,28.5,15
		S26,13.881,26,12.5z M13,12.5c0-1.381,1.119-2.5,2.5-2.5s2.5,1.119,2.5,2.5S16.881,15,15.5,15S13,13.881,13,12.5z M26,2.5
		C26,1.119,27.119,0,28.5,0S31,1.119,31,2.5S29.881,5,28.5,5S26,3.881,26,2.5z M13,2.5C13,1.119,14.119,0,15.5,0S18,1.119,18,2.5
		S16.881,5,15.5,5S13,3.881,13,2.5z M0,2.5C0,1.119,1.119,0,2.5,0S5,1.119,5,2.5S3.881,5,2.5,5S0,3.881,0,2.5z"/>
</g>
</svg>
