<svg version="1.1" id="Layer_1" xmlns="http://www.w3.org/2000/svg" xmlns:xlink="http://www.w3.org/1999/xlink" x="0px" y="0px"
	 width="100%" viewBox="0 0 123 144" enable-background="new 0 0 123 144" xml:space="preserve">
<path fill="#FCFDFD" opacity="1.000000" stroke="none" 
	d="
M63.000000,145.000000 
	C42.000000,145.000000 21.500000,145.000000 1.000000,145.000000 
	C1.000000,97.000000 1.000000,49.000000 1.000000,1.000000 
	C42.000000,1.000000 83.000000,1.000000 124.000000,1.000000 
	C124.000000,49.000000 124.000000,97.000000 124.000000,145.000000 
	C103.833336,145.000000 83.666664,145.000000 63.000000,145.000000 
M89.026588,128.581299 
	C103.150330,118.931557 110.127380,105.581398 109.950829,88.449799 
	C109.854759,79.127487 109.984314,69.803040 109.922981,60.480145 
	C109.777679,38.392590 93.526749,19.292070 72.261589,16.143814 
	C49.303104,12.744865 27.945061,25.803631 22.005592,48.087791 
	C17.673464,64.341400 19.925264,81.136238 20.643377,97.717697 
	C20.727921,99.669846 21.369211,101.625793 21.936657,103.524933 
	C30.263041,131.391846 62.902000,144.352692 89.026588,128.581299 
z"/>
<path fill="#040405" opacity="1.000000" stroke="none" 
	d="
M88.716400,128.772385 
	C62.902000,144.352692 30.263041,131.391846 21.936657,103.524933 
	C21.369211,101.625793 20.727921,99.669846 20.643377,97.717697 
	C19.925264,81.136238 17.673464,64.341400 22.005592,48.087791 
	C27.945061,25.803631 49.303104,12.744865 72.261589,16.143814 
	C93.526749,19.292070 109.777679,38.392590 109.922981,60.480145 
	C109.984314,69.803040 109.854759,79.127487 109.950829,88.449799 
	C110.127380,105.581398 103.150330,118.931557 88.716400,128.772385 
M38.881439,37.402046 
	C33.011204,43.808163 30.073334,51.389282 30.014662,60.044537 
	C29.943588,70.529762 29.766617,81.021805 30.042820,91.500160 
	C30.510666,109.248909 43.965092,123.641563 61.201378,125.232140 
	C79.528412,126.923370 96.215210,115.846817 98.676712,97.800461 
	C100.610779,83.620903 99.304672,68.988159 99.231712,54.557785 
	C99.220383,52.316265 98.319267,49.995434 97.468567,47.854759 
	C87.627632,23.091114 56.161457,18.395836 38.881439,37.402046 
z"/>
<path fill="#FCFCFD" opacity="1.000000" stroke="none" 
	d="
M39.106182,37.125996 
	C56.161457,18.395836 87.627632,23.091114 97.468567,47.854759 
	C98.319267,49.995434 99.220383,52.316265 99.231712,54.557785 
	C99.304672,68.988159 100.610779,83.620903 98.676712,97.800461 
	C96.215210,115.846817 79.528412,126.923370 61.201378,125.232140 
	C43.965092,123.641563 30.510666,109.248909 30.042820,91.500160 
	C29.766617,81.021805 29.943588,70.529762 30.014662,60.044537 
	C30.073334,51.389282 33.011204,43.808163 39.106182,37.125996 
M67.784096,59.602390 
	C68.499191,58.001251 69.724876,56.433159 69.831070,54.792603 
	C70.118835,50.346878 69.948524,45.870316 69.926826,41.406143 
	C69.911064,38.163235 68.490456,35.846424 65.070786,35.772736 
	C61.325043,35.692020 59.921295,38.129803 59.932442,41.614479 
	C59.945663,45.747932 59.856361,49.882919 59.939926,54.014645 
	C60.047298,59.323200 61.488766,60.486782 67.784096,59.602390 
z"/>
<path fill="#050505" opacity="1.000000" stroke="none" 
	d="
M67.405113,59.792542 
	C61.488766,60.486782 60.047298,59.323200 59.939926,54.014645 
	C59.856361,49.882919 59.945663,45.747932 59.932442,41.614479 
	C59.921295,38.129803 61.325043,35.692020 65.070786,35.772736 
	C68.490456,35.846424 69.911064,38.163235 69.926826,41.406143 
	C69.948524,45.870316 70.118835,50.346878 69.831070,54.792603 
	C69.724876,56.433159 68.499191,58.001251 67.405113,59.792542 
z"/>
</svg>