<?xml version="1.0" encoding="iso-8859-1"?>
<!-- Generator: Adobe Illustrator 24.1.2, SVG Export Plug-In . SVG Version: 6.00 Build 0)  -->
<svg version="1.1" id="Layer_1" xmlns="http://www.w3.org/2000/svg" xmlns:xlink="http://www.w3.org/1999/xlink" x="0px" y="0px"
	 viewBox="0 0 27.038 38" style="enable-background:new 0 0 27.038 38;" xml:space="preserve">
<g id="Icon_ionic-ios-bulb" transform="translate(1408.406 264.625)">
	<path id="Path_30" style="fill:#020203;" d="M-1381.368-251.754c0-7.116-6.4-12.871-13.519-12.871
		c-7.119,0-13.519,5.764-13.519,12.871c0.11,2.672,1.078,5.237,2.759,7.317h-0.027c1,1.37,1.955,1.617,2.877,3.2
		c1.012,1.514,1.602,3.27,1.708,5.088c0.035,0.782,0.679,1.399,1.462,1.4h0.813c0.201-0.001,0.364-0.164,0.365-0.365v-8.638
		c-0.002-0.453-0.109-0.9-0.311-1.306l-1.918-3.842c-0.237-0.474-0.045-1.05,0.429-1.287c0.134-0.067,0.281-0.102,0.43-0.101l0,0
		c0.366-0.001,0.7,0.209,0.859,0.539l2.311,4.7c0.199,0.4,0.302,0.841,0.3,1.288v8.641c0,0.201,0.164,0.364,0.365,0.365h2.192
		c0.201-0.001,0.364-0.164,0.365-0.365v-8.642c-0.002-0.447,0.101-0.888,0.3-1.288l2.32-4.713c0.156-0.312,0.473-0.51,0.822-0.512
		l0,0c0.508-0.001,0.92,0.409,0.921,0.917c0,0.145-0.034,0.288-0.099,0.417l-1.942,3.891c-0.202,0.406-0.308,0.853-0.311,1.306
		v8.624c0.001,0.201,0.164,0.364,0.365,0.365h0.913c0.773,0.002,1.414-0.598,1.462-1.37c0.127-1.818,0.705-3.576,1.681-5.115
		c0.923-1.58,1.882-1.827,2.877-3.2h-0.009C-1382.446-246.519-1381.479-249.083-1381.368-251.754z"/>
	<path id="Path_31" style="fill:#020203;" d="M-1396.531-226.625h3.288c0.707,0,1.281-0.572,1.283-1.279l0,0
		c-0.002-0.705-0.574-1.277-1.279-1.279h-3.292c-0.705,0.002-1.277,0.574-1.279,1.279l0,0
		C-1397.808-227.199-1397.236-226.627-1396.531-226.625z"/>
	<path id="Path_32" style="fill:#020203;" d="M-1398.358-230.644h6.942c0.705-0.002,1.277-0.574,1.279-1.279l0,0
		c-0.002-0.705-0.574-1.277-1.279-1.279h-6.942c-0.705,0.002-1.277,0.574-1.279,1.279l0,0
		C-1399.635-231.218-1399.063-230.646-1398.358-230.644z"/>
</g>
</svg>
