<?xml version="1.0" encoding="iso-8859-1"?>
<!-- Generator: Adobe Illustrator 24.1.2, SVG Export Plug-In . SVG Version: 6.00 Build 0)  -->
<svg version="1.1" id="Layer_1" xmlns="http://www.w3.org/2000/svg" xmlns:xlink="http://www.w3.org/1999/xlink" x="0px" y="0px"
	 viewBox="0 0 37 37" style="enable-background:new 0 0 37 37;" xml:space="preserve">
<path id="Icon_awesome-coins" style="fill:#020203;" d="M0,29.289v3.086C0,34.926,6.215,37,13.875,37s13.875-2.074,13.875-4.625
	v-3.086c-2.985,2.1-8.441,3.086-13.875,3.086S2.985,31.392,0,29.289z M23.125,9.25C30.785,9.25,37,7.176,37,4.625S30.785,0,23.125,0
	S9.25,2.074,9.25,4.625S15.465,9.25,23.125,9.25z M0,21.709v3.729c0,2.551,6.215,4.625,13.875,4.625s13.875-2.075,13.875-4.625
	v-3.729c-2.985,2.457-8.448,3.729-13.875,3.729S2.985,24.166,0,21.709z M30.063,22.504C34.2,21.7,37,20.213,37,18.5v-3.086
	c-2.112,1.307-4.476,2.157-6.937,2.493V22.504z M13.875,11.563C6.215,11.563,0,14.15,0,17.344s6.215,5.781,13.875,5.781
	s13.875-2.587,13.875-5.781S21.535,11.563,13.875,11.563z M29.723,15.632C34.059,14.851,37,13.319,37,11.563V8.477
	c-2.565,1.814-6.974,2.789-11.613,3.021c1.921,0.772,3.472,2.251,4.336,4.133V15.632z"/>
</svg>
