<?xml version="1.0" encoding="iso-8859-1"?>
<!-- Generator: Adobe Illustrator 24.1.2, SVG Export Plug-In . SVG Version: 6.00 Build 0)  -->
<svg version="1.1" id="Layer_1" xmlns="http://www.w3.org/2000/svg" xmlns:xlink="http://www.w3.org/1999/xlink" x="0px" y="0px"
	 viewBox="0 0 38 38" style="enable-background:new 0 0 38 38;" xml:space="preserve">
<g id="Icon_material-rss-feed" transform="translate(1124 261.34)">
	<path id="Path_28" style="fill:#020203;" d="M-1113.352-228.664c0,2.94-2.384,5.324-5.324,5.324c-2.94,0-5.324-2.384-5.324-5.324
		c0-2.94,2.384-5.324,5.324-5.324l0,0C-1115.736-233.988-1113.352-231.604-1113.352-228.664z"/>
	<path id="Path_29" style="fill:#020203;" d="M-1124-261.34v6.911c17.17,0.001,31.089,13.919,31.089,31.089h6.911
		C-1086.006-244.324-1103.016-261.334-1124-261.34z M-1124-247.517v6.911c9.532,0.008,17.258,7.734,17.266,17.266h6.911
		c0.004-13.349-10.814-24.173-24.163-24.177C-1123.991-247.517-1123.995-247.517-1124-247.517z"/>
</g>
</svg>
