<?xml version="1.0" encoding="iso-8859-1"?>
<!-- Generator: Adobe Illustrator 24.1.2, SVG Export Plug-In . SVG Version: 6.00 Build 0)  -->
<svg version="1.1" id="Layer_1" xmlns="http://www.w3.org/2000/svg" xmlns:xlink="http://www.w3.org/1999/xlink" x="0px" y="0px"
	 viewBox="0 0 27.636 38" style="enable-background:new 0 0 27.636 38;" xml:space="preserve">
<path id="Icon_material-developer-mode" style="fill:#020203;" d="M5.182,6.909h17.273v3.455h3.455V3.455
	c-0.007-1.902-1.553-3.44-3.455-3.437L5.182,0c-1.906,0.005-3.45,1.549-3.455,3.455v6.909h3.455V6.909z M19.708,26.928L27.636,19
	l-7.928-7.928l-2.435,2.453L22.748,19l-5.475,5.475C17.273,24.475,19.708,26.928,19.708,26.928z M10.363,24.475L4.888,19
	l5.475-5.475l-2.435-2.453L0,19l7.928,7.928L10.363,24.475z M22.454,31.09H5.182v-3.454H1.727v6.909
	c0.005,1.906,1.549,3.45,3.455,3.455h17.273c1.906-0.005,3.45-1.549,3.455-3.455v-6.909h-3.455L22.454,31.09z"/>
</svg>
