<?xml version="1.0" encoding="iso-8859-1"?>
<!-- Generator: Adobe Illustrator 24.1.2, SVG Export Plug-In . SVG Version: 6.00 Build 0)  -->
<svg version="1.1" id="Layer_1" xmlns="http://www.w3.org/2000/svg" xmlns:xlink="http://www.w3.org/1999/xlink" x="0px" y="0px"
	 viewBox="0 0 335.684 217.664" style="enable-background:new 0 0 335.684 217.664;" xml:space="preserve">
<path style="fill:#CD8F1B;" d="M325.687,0c0.404,0.299,0.808,0.597,1.211,0.896c-6.953,7.375-13.853,14.802-20.868,22.117
	C272.03,58.468,238.015,93.91,203.969,129.322c-17.503,18.205-40.251,21.545-61.631,9.186c-3.79-2.191-7.05-5.089-10.028-8.18
	C91.648,88.11,51.07,45.813,10.491,3.516C9.738,2.731,8.563,2.131,8.749,0.172c1.692,0,3.446,0,5.201,0
	c101.918,0,203.836,0.001,305.753-0.007C321.698,0.164,323.693,0.057,325.687,0z"/>
<path style="fill:#CD8F1B;" d="M8.288,216.68l0.105-0.25l-0.169-0.212c0.236-2.593,2.215-4.024,3.864-5.613
	c14.849-14.309,28.671-29.618,43.077-44.357c15.211-15.562,29.847-31.69,45.293-47.035c2.392-2.377,4.778-4.71,7.548-0.433
	c9.666,10.024,17.989,21.466,30.208,28.801c22.39,13.441,50.199,10.456,69.006-7.617c7.079-6.803,13.767-14.015,20.556-21.115
	c1.673-1.749,2.798-2.919,5.103-0.508c31.066,32.498,62.222,64.91,93.344,97.354c0.209,0.218,0.262,0.584,0.481,1.099
	c-1.763,1.246-3.788,0.643-5.642,0.644c-101.913,0.035-203.826,0.03-305.74,0.039c-1.993,0-3.987,0.122-5.98,0.187
	C8.817,217.522,8.166,217.515,8.288,216.68z"/>
<path style="fill:#CD8F1B;" d="M0.943,207.566c-1.385-0.966-0.835-2.424-0.835-3.669C0.081,139.968,0.086,76.039,0.094,12.109
	c0-0.481,0.096-0.962,0.183-1.777c2.008,0.459,2.964,2.099,4.146,3.302C29.273,38.929,54.09,64.257,78.924,89.568
	c1.159,1.181,2.41,2.271,3.618,3.403c4.226,3.98,8.032,8.405,12.398,12.214c3.318,2.895,1.963,4.803-0.361,7.341
	c-12.139,13.255-25.277,25.542-37.551,38.646c-16.602,17.723-34.164,34.508-50.603,52.381
	C4.903,205.207,3.567,207.327,0.943,207.566z"/>
<path style="fill:#CD8F1B;" d="M335.684,9.734c0,66.326,0,131.71,0,197.388c-2.14-0.454-3.072-2.148-4.262-3.374
	c-29.703-30.603-59.363-61.248-89.079-91.838c-1.947-2.005-3.051-3.222-0.424-5.911c30.497-31.225,60.838-62.602,91.226-93.933
	C333.718,11.474,334.358,10.948,335.684,9.734z"/>
</svg>
